<svg width="194" height="18" fill="none" xmlns="http://www.w3.org/2000/svg"><path d="M16.359.177h-2.256c-.695 0-1.26.552-1.26 1.234v2.21c0 .683.565 1.236 1.26 1.236h2.256c.696 0 1.26-.553 1.26-1.235v-2.21c0-.683-.564-1.235-1.26-1.235zM3.786 12.96H1.357c-.75 0-1.357.553-1.357 1.235v2.21c0 .682.608 1.235 1.357 1.235h2.429c.75 0 1.357-.553 1.357-1.235v-2.21c0-.682-.608-1.235-1.357-1.235zm-.271-6.445H1.26C.564 6.515 0 7.068 0 7.75v2.21c0 .682.564 1.235 1.26 1.235h2.255c.696 0 1.26-.553 1.26-1.235V7.75c0-.682-.564-1.235-1.26-1.235zm6.478 6.41H7.738c-.696 0-1.26.553-1.26 1.235v2.21c0 .682.564 1.235 1.26 1.235h2.255c.696 0 1.26-.553 1.26-1.235v-2.21c0-.682-.564-1.235-1.26-1.235zM3.515.049H1.26C.564.049 0 .6 0 1.283v2.21C0 4.177.564 4.73 1.26 4.73h2.255c.696 0 1.26-.553 1.26-1.235v-2.21A1.246 1.246 0 003.516.048zm6.653 6.531H7.912c-.696 0-1.26.553-1.26 1.235v2.21c0 .682.565 1.235 1.26 1.235h2.256c.696 0 1.26-.553 1.26-1.235v-2.21c0-.682-.564-1.235-1.26-1.235zm6.332 6.345h-2.255c-.696 0-1.26.553-1.26 1.235v2.21c0 .682.564 1.235 1.26 1.235H16.5c.696 0 1.26-.553 1.26-1.235v-2.21c0-.682-.564-1.235-1.26-1.235zM9.895.126H7.639c-.696 0-1.26.553-1.26 1.235v2.21c0 .682.565 1.235 1.26 1.235h2.256c.696 0 1.26-.553 1.26-1.235V1.36c0-.682-.564-1.235-1.26-1.235zm6.442 6.582h-2.255c-.696 0-1.26.553-1.26 1.235v2.21c0 .682.564 1.235 1.26 1.235h2.255c.696 0 1.26-.553 1.26-1.235v-2.21c0-.682-.564-1.235-1.26-1.235zM33.25 17C28.892 17 26 14.06 26 9.48 26 5 28.85 2 33.147 2c3.615 0 6.156 2.06 6.528 5.16h-2.996c-.289-1.78-1.673-2.78-3.532-2.78-2.603 0-4.152 2.04-4.152 5.1 0 3.36 1.735 5.14 4.255 5.14 2.19 0 3.595-1.2 3.74-3v-.2h-4.03V9.18h6.817v1.84C39.654 14.6 37.05 17 33.25 17zm8.334-.2V2.2h7.25c3.698 0 5.164 1.74 5.164 4.26 0 2.26-1.652 3.34-3.573 3.6v.06c1.239.3 1.797.96 2.313 2.26.661 1.64.764 3.6 1.611 4.3v.12h-3.305c-.702-.68-.867-2.82-1.239-4.12-.372-1.34-1.178-1.5-2.685-1.5h-2.644v5.62h-2.892zm2.892-7.94h4.048c1.694 0 2.479-.96 2.479-2.2 0-1.36-.97-2.14-2.479-2.14h-4.048v4.34zm11.443 7.94V2.2h10.308v2.32H58.81V8h6.693v2.32H58.81v4.1h7.519v2.38h-10.41zm12.419 0V2.2h10.307v2.32H71.23V8h6.692v2.32H71.23v4.1h7.519v2.38H68.338zm12.419 0V2.2h3.511l5 8.06c1.528 2.44 1.714 3.24 1.714 3.24h.062l-.042-11.3h2.892v14.6h-3.532l-5.185-8.3C84 6.62 83.69 5.48 83.69 5.48h-.041V16.8h-2.892zm15.313 0v-2.96h3.016v2.96H96.07zm5.187 0V2.2h2.892v5.84h6.92V2.2h2.892v14.6h-2.892v-6.44h-6.92v6.44h-2.892zm13.94 0l5.784-14.6h3.14l5.866 14.6h-3.098l-1.219-3.36h-6.259l-1.219 3.36h-2.995zm5.04-5.68h4.607l-1.343-3.6c-.929-2.66-.95-3.14-.95-3.14h-.041s0 .48-.93 3.14l-1.343 3.6zm10.982 5.68V2.2h7.25c3.698 0 5.165 1.74 5.165 4.26 0 2.26-1.653 3.34-3.574 3.6v.06c1.239.3 1.797.96 2.314 2.26.661 1.64.764 3.6 1.611 4.3v.12h-3.305c-.703-.68-.868-2.82-1.24-4.12-.372-1.34-1.177-1.5-2.685-1.5h-2.644v5.62h-2.892zm2.892-7.94h4.049c1.693 0 2.478-.96 2.478-2.2 0-1.36-.97-2.14-2.478-2.14h-4.049v4.34zm14.509 7.94l-5.536-14.6h3.099s2.995 8.18 3.305 9.18c.496 1.6.723 2.42.723 2.42h.041c-.02 0 .207-.82.723-2.42.331-1 3.202-9.18 3.202-9.18h2.995l-5.329 14.6h-3.223zm9.736 0V2.2h10.308v2.32h-7.416V8h6.693v2.32h-6.693v4.1h7.519v2.38h-10.411zm17.591.2c-3.842 0-6.156-2.02-6.156-5.02h3.305c-.041 1.7 1.116 2.64 2.851 2.64 1.838 0 2.706-.7 2.706-1.74s-.744-1.48-3.388-2.18c-2.417-.64-5.061-1.4-5.061-4.4 0-2.38 2.149-4.3 5.536-4.3 3.491 0 5.722 1.9 5.722 4.58h-3.202c-.02-1.42-1.012-2.2-2.52-2.2-1.466 0-2.437.72-2.437 1.68 0 1.14.805 1.5 2.912 2.08 3.119.84 5.639 1.18 5.639 4.44 0 2.62-2.458 4.42-5.907 4.42zm10.617-.2V4.58h-4.565V2.2H194v2.38h-4.544V16.8h-2.892z" fill="#FBFBFB"/></svg>